<svg xmlns="http://www.w3.org/2000/svg" viewBox="0 0 115.86 111.17">
  <path d="M.47 65.04c.36.48.97.53 1.56.62-.45-.46-.92-.67-1.56-.62Zm1.57.63h-.02l.01.01ZM115.42 44.5c-.15 0-.31.02-.48.03.16.02.32.02.48-.03Zm-85.1 22.66.09-.8c1.39 0 .4.92 1.68.72.51-1.13 2.13.13 2.57-.47-.01.09.62.13.58.48.19-.61.65-.14 1.04-.3.14-.17-.1-.18-.21-.37l.91-.21c.35.2.44.56.05.63 2.37.23 13.73.86 16.29.56-.33-.46-1.11-.15-1.41-.88.68-.41.99.15 1.29-.28.25 1.09 1.48.27 1.99 1.37l.2-.61.33.38c2.97-.63.68-.31 3.31-.15 1.52-.09 2.25-.94 3.09-.62-.13 0-.46-.38-.07-.54.07.54 1.05-.38 1.24.16.39-.07 1.64 0 1.22-.73.21.37 1.33.52.66.84.38.02.74.13 1.01-.03l-.48-.21c1.27-.1 1.96.47 2.79-.19l-.47-.29c.76-.04 1.4-.1 1.69.63l-.78.22c1.26-.01 2.02-.06 3.07-.44l-.38-.02c1.34-.72 8.35-1.3 9.58-2.21l-.57-.57 1.06-.47c-.13 0-.52 1.84-.62 1.65 2.27-.04 14.1-.44 16.2-.05.85.32.15.9.14.99 1.03-.21.45-.6 1.32-.55.24.1-.05.44-.19.52.38-.07.74.13.77-.13-.48-.21-.27-.91-.48-1.37l1.13.07-.05.44c.25.01.64-1.21 1.75-.97 1.87.2 3.9.05 5.78.16-.03.27-.43.42-.82.58.25.01.64-.05.87.14-.45-.47.79-.31.44-.51 1.38-1.08 3.16-.08 4.37-.81.11-.97 2.67-16.74 2.67-17.9.38.02.75.04.87.14-.1-.27-.84-.41-1.23-.25l-.07.62c-.91.21-.21-.37-1.1-.33-.05-.51.77-.61 1.49-.66-.65-.06-1.29-.43-1.55.12-.61-.21.07-.62-.66-.84-.52.15-1.21.64-1.8.34v-.09c-1.44-.53-2.22.76-3.54.24l.14-.17c-.47-.3-1.39.1-2.24-.22.24.1.45.47-.06.53-.97-.32-1.64 0-2.35-.4l-.69.5c-3.39-.11-16.79.55-20.19.61l.13-.08c-5.19.23-15.85.15-21.21.81-.83-.49-1.97-.38-2.84-.52.48.21.31.55-.06.53-2.64-.07-.18.34-2.85.54-3.07.44-14.82-.12-17.55-.55-1.47.72-3.29.16-4.73.61l.15-.17c-1.54.27-10.26-.44-12.05-.19l.24.1c-1.56.44-1.35-.35-2.58-.6.16.81-1.18 1.27-1.69 1.33l.02-.18c-.77.13-2.52.83-3.79.93l.05-.44c-1.06.47-3.05.27-3.82.31-1.74-.19-4.42-.97-6.76-.4l-1.5-1.27-.22.12s-2.48 15.25.58 18.52l-.05.44.61-.05c.73.22 1.07-.29 1.02.15l-1-.06c.73.13.22.36-.06.61.31.04.6.1.85.23.15-.17-.11-.18-.22-.28.4-.15.95-.57 1.43-.36.75.04.05.72.92.77 4.62.36 9.09.89 13.77.81.11.18-.02.18-.16.26 1.41-.19 2.66-.11 3.94-.3.36.2.45.47.56.66-.21-.37 7.08-.37 7.19-.28ZM48.04.48c-.48.34-.53.93-.61 1.49.46-.43.66-.89.61-1.49Zm-.62 1.5h.01v-.02l-.01.02zm22.45 108.15c-.02-.14-.03-.29-.05-.45 0 .15 0 .31.05.45Z"/>
  <path d="m45.89 29.05.8.09c0 1.33-.92.38-.73 1.61 1.13.49-.13 2.04.47 2.47-.09-.01-.13.59-.48.55.61.19.14.62.29 1 .17.14.18-.1.37-.2l.21.87c-.2.34-.56.42-.63.05-.24 2.27-.89 13.21-.59 15.68.46-.31.15-1.08.88-1.36.41.65-.15.96.28 1.24-1.08.25-.26 1.43-1.36 1.92l.61.19-.38.32c.63 2.86.31.65.16 3.19.1 1.47.95 2.17.63 2.99 0-.12.38-.45.54-.07-.54.07.39 1.01-.16 1.2.07.37 0 1.58.74 1.17-.37.21-.52 1.28-.84.64-.02.36-.13.72.04.98l.2-.47c.11 1.23-.45 1.9.22 2.7l.29-.46c.05.73.11 1.35-.62 1.64l-.23-.75c.02 1.22.08 1.95.47 2.97l.02-.36c.74 1.29 1.4 8.06 2.34 9.24l.56-.56.49 1.02c0-.12-1.85-.47-1.66-.57.07 2.2.73 13.63.45 15.68-.29.83-.89.17-.98.17.24.99.61.41.59 1.26-.1.24-.45-.03-.53-.16.08.37-.11.72.16.74.19-.47.9-.3 1.35-.51l-.03 1.09-.44-.03c0 .24 1.23.58 1.03 1.66-.12 1.82.11 3.78.08 5.6-.27-.02-.44-.39-.61-.77 0 .24.08.61-.1.85.45-.46.34.75.53.4 1.14 1.29.24 3.06 1.03 4.2.98.07 16.85 1.66 18.01 1.58 0 .36 0 .71-.1.83.27-.11.36-.81.19-1.18l-.62-.03c-.26-.84.36-.22.28-1.05.51-.07.65.69.73 1.37.03-.61.37-1.24-.2-1.46.18-.58.62.03.81-.67-.17-.48-.7-1.1-.43-1.68h.09c.46-1.39-.88-2.06-.4-3.33l.18.13c.28-.46-.15-1.31.13-2.12-.09.23-.45.45-.53-.03.28-.93-.06-1.55.31-2.24l-.52-.63c-.03-3.2-1.06-15.88-1.15-19.13l.08.13c-.33-4.93-.36-15.08-1.03-20.21.49-.79.37-1.88.51-2.71-.2.46-.55.3-.53-.06.06-2.52-.34-.17-.54-2.72-.46-2.93.13-14.19.57-16.8-.71-1.41-.15-3.16-.6-4.54l.17.14c-.26-1.48.47-9.85.22-11.57l-.1.23c-.44-1.5.35-1.29.6-2.48-.81.15-1.26-1.14-1.32-1.63l.18.02c-.13-.74-.82-2.42-.93-3.64l.44.05c-.47-1.02-.27-2.94-.31-3.67.19-1.67.97-4.26.39-6.51L67.2 1.1l-.13-.21s-15.26-2.32-18.52.62l-.44-.05.06.58c-.22.7.29 1.02-.15.97l.06-.96c-.13.7-.36.21-.61-.06-.04.29-.1.58-.23.81.17.14.18-.1.28-.21.16.38.57.9.37 1.36-.04.72-.72.04-.77.88-.35 4.41-.89 8.69-.82 13.17-.18.1-.18-.02-.26-.15.18 1.35.11 2.54.3 3.78-.2.34-.47.43-.66.53.37-.2.35 6.79.25 6.9Z"/>
</svg>
