<svg xmlns="http://www.w3.org/2000/svg" viewBox="0 0 296 31">
  <path fill-rule="evenodd" d="M291.958 30.654h-5.625l1.442-12.059h-2.848l-1.441 12.059h-5.625L281.447.771h14.097l-3.586 29.883Zm-5.554-24.258-.791 6.574h2.847l.791-6.574h-2.847ZM271.5 17.998l1.828 12.656h-5.625l-1.687-12.656h-1.055l-1.512 12.656h-5.625L261.41.771h5.625l-1.388 11.602h3.199L270.235.771h5.625l-2.057 17.227H271.5Zm-24.659 12.656L250.427.771h5.625l-3.586 29.883h-5.625Zm-11.177 0-2.672-15.293h-.158l-.158 3.269-1.125 12.024h-5.643L229.459.789h5.203l2.672 15.293h.158l.141-3.27L238.775.789h5.625l-3.55 29.865h-5.186Zm-16.538-14.942 2.654 2.813-1.459 12.129h-14.098L209.809.771h14.098L222.448 12.9l-3.322 2.812Zm-6.61 9.317h2.848l.791-6.504h-2.848l-.791 6.504Zm2.25-18.633-.791 6.504h2.848l.791-6.504h-2.848Zm-19.755 24.258 1.442-12.059h-2.848l-1.441 12.059h-5.625L190.125.771h14.097l-3.586 29.883h-5.625Zm.071-24.258-.791 6.574h2.847l.791-6.574h-2.847ZM180.09 20.001l1.916 10.653h-5.625l-1.793-10.653h-1.177l-1.283 10.653h-5.625L170.088.771h14.45l-2.303 19.23h-2.145Zm-5.045-13.605-.966 7.98h3.199l.967-7.98h-3.2Zm-28.227 24.258L150.404.771h14.097l-3.586 29.883h-14.097Zm8.543-24.258-2.25 18.633h2.847l2.25-18.633h-2.847Zm-21.46 14.766-1.143 9.492h-5.625L130.719.771h14.098l-2.444 20.391h-8.472Zm1.775-14.766-1.107 9.141h2.847l1.108-9.141h-2.848Zm-28.228 24.258L111.034.771h5.625l-2.918 24.258h2.848L119.507.771h5.625l-3.586 29.883h-14.098Zm-28.541 0 .668-5.625h5.52L88.013.771h5.625l-3.586 29.883H78.907Zm-11.212 0 1.442-12.059h-2.848l-1.441 12.059h-5.625L62.808.771h14.098L73.32 30.654h-5.625Zm.07-24.258-.791 6.574h2.848l.791-6.574h-2.848ZM39.538 30.654 43.124.771h9.703l3.885 4.219-3.077 25.664H39.538Zm8.543-24.258-2.25 18.633h2.847l2.25-18.633h-2.847ZM19.853 30.654 23.439.771h14.098l-3.586 29.883H19.853Zm8.543-24.258-2.25 18.633h2.848l2.25-18.633h-2.848ZM.168 30.654 3.754.771h9.704l3.884 4.219-3.076 25.664H.168ZM8.711 6.396l-2.25 18.633h2.848l2.25-18.633H8.711Z"/>
</svg>
