<svg xmlns="http://www.w3.org/2000/svg" viewBox="5 5.804 90 88.393">
  <path fill="none" d="m58.591 56.318-3.153-3.153a24.821 24.821 0 0 1-1.437 1.477l3.133 3.132 1.457-1.456zm-9.538-3.663a24.616 24.616 0 0 0 2.115-1.863c.716-.716 1.415-1.536 2.203-2.58a24.085 24.085 0 0 0 4.87-14.005c-.159-6.278-2.67-12.159-7.073-16.565-9.472-9.472-24.884-9.472-34.355-.002-4.401 4.405-6.912 10.282-7.074 16.554.148 6.273 2.643 12.151 7.032 16.562.045.041.094.087.125.119 8.688 8.626 22.509 9.406 32.136 1.797l.021-.017zm9.621 10.283 5.063-5.063 26.247 26.248-5.062 5.063z"/><path d="M94.686 82.56v-.002a4.057 4.057 0 0 0-.878-1.314L66.615 54.046a4.047 4.047 0 0 0-2.875-1.191h-.002a4.06 4.06 0 0 0-1.587.323l-3.811-3.811a28.785 28.785 0 0 0 4.637-15.11v-.031l.001-.009-.001-.063v-.004c-.174-7.522-3.178-14.574-8.46-19.858-11.319-11.318-29.735-11.316-41.054-.001-5.276 5.28-8.28 12.323-8.46 19.832a.059.059 0 0 1-.002.013L5 34.171v.046l.001.079c0 .013.005.025.005.039.184 7.503 3.183 14.535 8.455 19.809.027.028.071.068.111.105 9.914 9.811 25.339 11.114 36.713 3.376l3.711 3.71a4.078 4.078 0 0 0 .856 4.476l27.196 27.194a4.042 4.042 0 0 0 2.876 1.192h.006a4.027 4.027 0 0 0 2.869-1.193l6.007-6.009a4.049 4.049 0 0 0 .88-4.435zM54.001 54.642a24.097 24.097 0 0 0 1.437-1.477l3.153 3.153-1.458 1.457-3.132-3.133zm-37.105-3.767a2.562 2.562 0 0 0-.125-.119c-4.389-4.411-6.884-10.289-7.032-16.562.161-6.272 2.672-12.149 7.074-16.554 9.472-9.47 24.883-9.47 34.354.002 4.404 4.406 6.915 10.287 7.073 16.565a24.088 24.088 0 0 1-4.87 14.005c-.787 1.044-1.487 1.864-2.203 2.58a24.446 24.446 0 0 1-2.115 1.863l-.02.017c-9.627 7.609-23.447 6.829-32.136-1.797zm68.027 38.306-26.25-26.247 5.066-5.064 26.245 26.25-5.061 5.061z"/>
</svg>
